<svg width="20" height="20" viewBox="0 0 20 20" fill="none" xmlns="http://www.w3.org/2000/svg">
<path d="M12.0075 12.0677L4.49999 15.5602L7.9925 8.05272L15.5 4.56022M10 0.893555C8.79621 0.893555 7.60421 1.13066 6.49206 1.59133C5.37991 2.05199 4.36939 2.72721 3.51818 3.57841C1.7991 5.29749 0.833328 7.62907 0.833328 10.0602C0.833328 12.4914 1.7991 14.823 3.51818 16.542C4.36939 17.3932 5.37991 18.0685 6.49206 18.5291C7.60421 18.9898 8.79621 19.2269 10 19.2269C12.4311 19.2269 14.7627 18.2611 16.4818 16.542C18.2009 14.823 19.1667 12.4914 19.1667 10.0602C19.1667 8.85644 18.9296 7.66444 18.4689 6.55229C18.0082 5.44014 17.333 4.42961 16.4818 3.57841C15.6306 2.72721 14.6201 2.05199 13.5079 1.59133C12.3958 1.13066 11.2038 0.893555 10 0.893555ZM10 9.05189C9.73257 9.05189 9.47609 9.15812 9.287 9.34722C9.0979 9.53632 8.99166 9.79279 8.99166 10.0602C8.99166 10.3276 9.0979 10.5841 9.287 10.7732C9.47609 10.9623 9.73257 11.0686 10 11.0686C10.2674 11.0686 10.5239 10.9623 10.713 10.7732C10.9021 10.5841 11.0083 10.3276 11.0083 10.0602C11.0083 9.79279 10.9021 9.53632 10.713 9.34722C10.5239 9.15812 10.2674 9.05189 10 9.05189Z" fill="white"/>
</svg>
