<?xml version="1.0" standalone="no"?>
<!DOCTYPE svg PUBLIC "-//W3C//DTD SVG 20010904//EN"
 "http://www.w3.org/TR/2001/REC-SVG-20010904/DTD/svg10.dtd">
<svg version="1.0" xmlns="http://www.w3.org/2000/svg"
 width="1024.000000pt" height="1024.000000pt" viewBox="0 0 1024.000000 1024.000000"
 preserveAspectRatio="xMidYMid meet">
<metadata>
Created by potrace 1.14, written by Peter Selinger 2001-2017
</metadata>
<g transform="translate(0.000000,1024.000000) scale(0.100000,-0.100000)"
fill="#000000" stroke="none">
<path d="M4780 10229 c-1112 -74 -2168 -509 -3015 -1243 -158 -137 -445 -430
-575 -586 -916 -1102 -1326 -2502 -1149 -3920 125 -1006 544 -1943 1213 -2715
137 -158 430 -445 586 -575 1102 -916 2502 -1326 3920 -1149 1006 125 1943
544 2715 1213 158 137 445 430 575 586 916 1102 1326 2502 1149 3920 -125
1006 -544 1943 -1213 2715 -137 158 -430 445 -586 575 -939 780 -2098 1197
-3305 1188 -104 0 -246 -5 -315 -9z m2570 -3429 c151 -14 400 -55 497 -83 l78
-22 -3 -260 c-2 -218 -28 -764 -37 -773 -1 -1 -17 30 -34 70 -18 40 -57 117
-87 171 -182 323 -535 662 -867 832 -42 22 -77 43 -77 47 0 23 339 35 530 18z
m-4345 -40 c56 -28 77 -46 107 -89 43 -62 38 -49 253 -646 91 -253 199 -550
240 -660 72 -194 128 -350 296 -825 95 -267 111 -303 153 -335 66 -50 136 -42
219 27 26 21 47 35 47 31 0 -5 -45 -126 -101 -269 -56 -142 -159 -410 -229
-594 l-127 -335 -273 0 -272 0 -25 70 c-14 39 -63 171 -108 295 -46 124 -119
324 -163 445 -44 121 -182 490 -307 820 -125 330 -288 766 -361 969 -156 427
-202 543 -277 692 -98 196 -210 346 -312 421 l-30 22 600 -2 601 -2 69 -35z
m2218 17 c43 -28 67 -75 67 -133 0 -96 -44 -203 -452 -1086 -51 -109 -93 -197
-94 -195 -1 1 -7 47 -14 102 -64 557 -273 993 -594 1236 -50 38 -100 75 -111
84 -18 13 44 14 575 12 555 -2 598 -3 623 -20z m1091 -164 c-71 -179 -99 -356
-74 -476 41 -201 206 -352 687 -631 562 -325 723 -430 851 -551 222 -209 312
-413 299 -670 -15 -272 -110 -470 -331 -690 -120 -119 -222 -196 -356 -268
-73 -39 -249 -117 -264 -117 -3 0 15 38 40 84 82 155 125 411 95 568 -19 93
-79 213 -141 281 -103 112 -325 268 -645 452 -461 265 -727 479 -871 700 -103
158 -141 296 -131 475 13 239 103 428 284 601 96 91 175 146 289 201 75 36
247 96 280 97 7 1 3 -21 -12 -56z m-905 -2138 c66 -165 187 -371 370 -629 130
-184 254 -328 400 -468 170 -164 277 -240 381 -274 l55 -18 -60 -10 c-94 -14
-536 -13 -655 2 -119 15 -502 90 -511 100 -4 4 -9 317 -12 695 -2 378 -3 686
-2 685 2 -2 17 -39 34 -83z"/>
</g>
</svg>
